<svg xmlns="http://www.w3.org/2000/svg" xmlns:xlink="http://www.w3.org/1999/xlink"><symbol id="icon-google" viewBox="0 0 14 14">
<path fill-rule="evenodd" clip-rule="evenodd" d="M13.8751 5.60271H7.14791C7.14791 6.30231 7.14791 7.70152 7.14362 8.40113H11.0418C10.8925 9.10074 10.3628 10.0802 9.61449 10.5734C9.61377 10.5727 9.61306 10.5776 9.61163 10.5769C8.61671 11.2338 7.30372 11.3829 6.32881 11.187C4.80069 10.8833 3.59134 9.77516 3.10032 8.36755C3.10317 8.36545 3.10532 8.34586 3.10746 8.34446C2.80012 7.47135 2.80012 6.30231 3.10746 5.60271H3.10675C3.50272 4.31683 4.74851 3.14359 6.27878 2.82247C7.50957 2.56152 8.89832 2.84416 9.91968 3.79982C10.0555 3.6669 11.7995 1.96405 11.9303 1.82553C8.44088 -1.33459 2.85373 -0.222915 0.763104 3.85789H0.762389C0.762389 3.85789 0.763104 3.85789 0.758816 3.86558C-0.275418 5.86996 -0.232534 8.23183 0.765963 10.1404C0.763104 10.1425 0.76096 10.1438 0.758816 10.1459C1.66368 11.902 3.31045 13.2487 5.29458 13.7615C7.40236 14.3142 10.0848 13.9364 11.8817 12.3112C11.8824 12.3119 11.8831 12.3126 11.8838 12.3133C13.4062 10.9421 14.354 8.60612 13.8751 5.60271Z"/>
</symbol><symbol id="icon-linkedin" viewBox="0 0 16 16">
<path fill-rule="evenodd" clip-rule="evenodd" d="M16 16H12.9231V10.3967C12.9231 8.85961 12.2715 8.00218 11.1031 8.00218C9.83154 8.00218 9.07692 8.89563 9.07692 10.3967V16H6V5.59243H9.07692V6.76288C9.07692 6.76288 10.0423 5 12.2177 5C14.3938 5 16 6.3818 16 9.24148C16 12.1004 16 16 16 16ZM1.50031 3C0.671513 3 0 2.32819 0 1.4997C0 0.671815 0.671513 0 1.50031 0C2.32849 0 3 0.671815 3 1.4997C3.00061 2.32819 2.32849 3 1.50031 3ZM0 16H3V6H0V16Z"/>
</symbol><symbol id="icon-twitter" viewBox="0 0 16 14">
<path fill-rule="evenodd" clip-rule="evenodd" d="M5.032 14C11.0696 14 14.372 8.6132 14.372 3.94228C14.372 3.78894 14.372 3.63646 14.3624 3.48484C15.0048 2.98518 15.5592 2.36492 16 1.65506C15.4016 1.94107 14.7656 2.12887 14.1152 2.21158C14.8 1.76964 15.3128 1.07529 15.5584 0.256027C14.9136 0.667812 14.2088 0.958129 13.4736 1.11406C12.2304 -0.309101 10.1512 -0.378019 8.8288 0.960714C7.9768 1.82391 7.6144 3.11096 7.8792 4.33856C5.24 4.19555 2.7808 2.85337 1.1136 0.645414C0.2424 2.26068 0.688 4.3265 2.1304 5.36371C1.608 5.34734 1.0968 5.19572 0.64 4.92178V4.96657C0.6408 6.64903 1.7424 8.09803 3.2736 8.43143C2.7904 8.57357 2.2832 8.59424 1.792 8.49173C2.2216 9.93212 3.4544 10.9185 4.8584 10.9469C3.696 11.9307 2.26 12.4649 0.7816 12.4631C0.5208 12.4623 0.26 12.4459 0 12.4123C1.5016 13.4495 3.248 14 5.032 13.9974"/>
</symbol></svg>